<svg width="512" height="512" xmlns="http://www.w3.org/2000/svg" xmlns:xlink="http://www.w3.org/1999/xlink" overflow="hidden"><defs><clipPath id="clip0"><rect x="0" y="0" width="512" height="512"/></clipPath></defs><g clip-path="url(#clip0)"><path d="M471.104 340.936C447.625 357.29 417.79 361.563 390.664 352.456 388.205 351.58 385.472 351.959 383.344 353.472L347.344 379 356.608 392.048 389.272 368.848C420.19 377.879 453.531 372.492 480.032 354.184 484.746 350.998 489.215 347.463 493.4 343.608L482.552 331.848C478.971 335.162 475.145 338.201 471.104 340.936Z" fill="#FFFFFF"/><path d="M390.544 221.544C367.185 236.469 354.338 263.372 357.416 290.92L256 355.928 154.568 290.96C157.713 263.397 144.834 236.46 121.408 221.6 106.168 211.096 87.636 206.474 69.248 208.592 36.7082 211.778 12.9119 240.738 16.0973 273.278 16.4602 276.986 17.1723 280.65 18.224 284.224 23.1529 302.058 34.3835 317.498 49.832 327.68 72.4034 343.86 102.241 345.703 126.632 332.424L205.36 388.32 130.44 436.36C115.826 445.646 111.506 465.022 120.792 479.636 120.958 479.898 121.13 480.158 121.304 480.416 131.026 494.781 150.554 498.545 164.919 488.822 165.115 488.689 165.31 488.554 165.504 488.416L256 424.24 346.496 488.464C360.51 498.716 380.182 495.666 390.434 481.652 400.686 467.638 397.636 447.966 383.622 437.714 382.966 437.234 382.291 436.78 381.6 436.352L306.592 388.352 385.376 332.432C409.764 345.716 439.602 343.879 462.176 327.704 495.056 305.512 505.792 263.64 486.088 234.36 466.384 205.08 423.496 199.352 390.544 221.544ZM156.24 475.4C149.131 480.185 139.504 478.428 134.544 471.44 129.782 464.414 131.616 454.858 138.642 450.096 138.77 450.009 138.901 449.923 139.032 449.84L219.424 398.288 242.136 414.4ZM379.76 459.696C381.485 468.047 376.112 476.215 367.762 477.939 363.569 478.805 359.205 477.891 355.712 475.416L131.4 316.216C128.595 314.227 124.834 314.253 122.056 316.28 102.646 328.947 77.406 328.203 58.776 314.416 46.5368 306.388 37.6234 294.194 33.688 280.096 26.7117 257.28 39.5522 233.129 62.3682 226.152 65.2724 225.264 68.2622 224.685 71.288 224.424 85.832 222.791 100.475 226.486 112.504 234.824 132.251 246.944 142.378 270.067 137.896 292.8 137.053 296.137 138.438 299.639 141.336 301.496L372.968 449.832C376.478 452.06 378.93 455.622 379.76 459.696ZM453.2 314.4C434.564 328.184 409.321 328.921 389.912 316.248 387.134 314.221 383.373 314.195 380.568 316.184L292.064 379.016 270.848 365.416 370.64 301.416C373.531 299.562 374.916 296.068 374.08 292.736 369.688 270.006 379.808 246.927 399.504 234.76 425.104 217.504 458.016 221.312 472.808 243.224 487.6 265.136 478.792 297.144 453.2 314.4Z" fill="#FFFFFF"/><path d="M103.416 30.664 94.56 17.336C54.799 43.6821 38.0566 93.6984 53.944 138.672L69.024 133.328C55.5898 95.2672 69.7702 52.9469 103.424 30.664Z" fill="#FFFFFF"/><path d="M86 162.144C82.148 157.774 78.7342 153.037 75.808 148L61.96 156C65.415 161.955 69.4478 167.555 74 172.72Z" fill="#FFFFFF"/><path d="M343.84 289.6 366.616 175.728C406.231 172.281 435.55 137.373 432.104 97.7576 428.854 60.4095 397.489 31.8049 360 32 343.823 31.9427 328.11 37.4032 315.456 47.48 293.139 14.6434 248.428 6.11562 215.591 28.4328 208.098 33.525 201.636 39.9875 196.544 47.48 183.89 37.4032 168.177 31.9427 152 32 112.235 31.9963 79.997 64.2289 79.9934 103.994 79.9899 141.199 108.335 172.281 145.384 175.696L168.16 289.6 183.84 286.464 179.36 264 332.64 264 328.16 286.4ZM305.224 248 311.92 201.136 296.08 198.864 289.064 248 264 248 264 160 248 160 248 248 222.936 248 215.92 198.864 200.08 201.136 206.776 248 176.16 248 159.84 166.4C159.079 162.674 155.802 159.999 152 160 121.072 160 96 134.928 96 104 96 73.0721 121.072 48 152 48 167.411 47.9605 182.144 54.337 192.664 65.6 195.7 68.8102 200.763 68.9517 203.974 65.916 204.674 65.2528 205.25 64.4682 205.672 63.6 219.094 35.8046 252.506 24.1522 280.302 37.5734 291.667 43.0614 300.84 52.2346 306.328 63.6 308.259 67.5739 313.046 69.2298 317.02 67.2987 317.888 66.8768 318.673 66.3013 319.336 65.6 329.856 54.337 344.589 47.9605 360 48 390.928 48 416 73.0721 416 104 416 134.928 390.928 160 360 160 356.198 159.999 352.921 162.674 352.16 166.4L335.84 248Z" fill="#FFFFFF"/></g></svg>